<svg width="172" height="40" viewBox="0 0 172 40" fill="none" xmlns="http://www.w3.org/2000/svg">
<rect width="172" height="40" rx="10" fill="#FBE0DC"/>
<path d="M30.8994 15.6H32.3154V21.18C32.3154 21.692 32.4554 22.108 32.7354 22.428C33.0154 22.748 33.4234 22.908 33.9594 22.908C34.5034 22.908 34.9114 22.748 35.1834 22.428C35.4634 22.108 35.6034 21.692 35.6034 21.18V15.6H37.0194V21.24C37.0194 21.856 36.8874 22.388 36.6234 22.836C36.3674 23.276 36.0074 23.616 35.5434 23.856C35.0874 24.096 34.5594 24.216 33.9594 24.216C33.3594 24.216 32.8274 24.096 32.3634 23.856C31.9074 23.616 31.5474 23.276 31.2834 22.836C31.0274 22.388 30.8994 21.856 30.8994 21.24V15.6ZM40.8344 15.6H43.3664C43.9824 15.6 44.5144 15.708 44.9624 15.924C45.4104 16.132 45.7584 16.432 46.0064 16.824C46.2544 17.216 46.3784 17.68 46.3784 18.216C46.3784 19.016 46.1064 19.652 45.5624 20.124C45.0184 20.588 44.2864 20.82 43.3664 20.82H42.2504V24H40.8344V15.6ZM43.3664 16.848H42.2504V19.572H43.3664C43.8544 19.572 44.2464 19.46 44.5424 19.236C44.8384 19.004 44.9864 18.664 44.9864 18.216C44.9864 17.768 44.8384 17.428 44.5424 17.196C44.2464 16.964 43.8544 16.848 43.3664 16.848ZM49.7719 15.6H51.1879V22.728H54.5239V24H49.7719V15.6ZM56.706 19.8C56.706 19.176 56.814 18.6 57.03 18.072C57.246 17.536 57.55 17.076 57.942 16.692C58.342 16.3 58.806 15.996 59.334 15.78C59.862 15.564 60.438 15.456 61.062 15.456C61.686 15.456 62.262 15.564 62.79 15.78C63.326 15.996 63.79 16.3 64.182 16.692C64.582 17.076 64.89 17.536 65.106 18.072C65.322 18.6 65.43 19.176 65.43 19.8C65.43 20.424 65.322 21.004 65.106 21.54C64.89 22.068 64.586 22.532 64.194 22.932C63.802 23.324 63.338 23.632 62.802 23.856C62.274 24.072 61.694 24.18 61.062 24.18C60.43 24.18 59.85 24.072 59.322 23.856C58.794 23.632 58.334 23.324 57.942 22.932C57.55 22.532 57.246 22.068 57.03 21.54C56.814 21.004 56.706 20.424 56.706 19.8ZM58.206 19.8C58.206 20.376 58.326 20.892 58.566 21.348C58.814 21.796 59.154 22.148 59.586 22.404C60.018 22.66 60.51 22.788 61.062 22.788C61.622 22.788 62.114 22.66 62.538 22.404C62.97 22.148 63.306 21.796 63.546 21.348C63.794 20.892 63.918 20.376 63.918 19.8C63.918 19.224 63.798 18.712 63.558 18.264C63.318 17.808 62.982 17.452 62.55 17.196C62.126 16.94 61.63 16.812 61.062 16.812C60.51 16.812 60.018 16.94 59.586 17.196C59.154 17.452 58.814 17.808 58.566 18.264C58.326 18.712 58.206 19.224 58.206 19.8ZM74.1558 24L73.1958 21.84H70.0998L69.1398 24H67.5438L71.6478 15.132L75.7518 24H74.1558ZM71.6478 17.976L70.5078 20.64H72.7878L71.6478 17.976ZM81.441 24H78.729V15.6H81.441C82.297 15.6 83.049 15.776 83.697 16.128C84.345 16.472 84.849 16.96 85.209 17.592C85.577 18.216 85.761 18.952 85.761 19.8C85.761 20.64 85.577 21.376 85.209 22.008C84.849 22.64 84.345 23.132 83.697 23.484C83.049 23.828 82.297 24 81.441 24ZM81.405 16.932H80.181V22.668H81.405C81.957 22.668 82.453 22.56 82.893 22.344C83.333 22.128 83.677 21.808 83.925 21.384C84.181 20.96 84.309 20.432 84.309 19.8C84.309 19.168 84.181 18.64 83.925 18.216C83.677 17.792 83.333 17.472 82.893 17.256C82.453 17.04 81.957 16.932 81.405 16.932ZM94.7407 15.6H97.2727C97.8887 15.6 98.4207 15.708 98.8687 15.924C99.3167 16.132 99.6647 16.432 99.9127 16.824C100.161 17.216 100.285 17.68 100.285 18.216C100.285 19.016 100.013 19.652 99.4687 20.124C98.9247 20.588 98.1927 20.82 97.2727 20.82H96.1567V24H94.7407V15.6ZM97.2727 16.848H96.1567V19.572H97.2727C97.7607 19.572 98.1527 19.46 98.4487 19.236C98.7447 19.004 98.8927 18.664 98.8927 18.216C98.8927 17.768 98.7447 17.428 98.4487 17.196C98.1527 16.964 97.7607 16.848 97.2727 16.848ZM103.678 15.6H105.094V18.84H109.318V15.6H110.734V24H109.318V20.148H105.094V24H103.678V15.6ZM114.116 19.8C114.116 19.176 114.224 18.6 114.44 18.072C114.656 17.536 114.96 17.076 115.352 16.692C115.752 16.3 116.216 15.996 116.744 15.78C117.272 15.564 117.848 15.456 118.472 15.456C119.096 15.456 119.672 15.564 120.2 15.78C120.736 15.996 121.2 16.3 121.592 16.692C121.992 17.076 122.3 17.536 122.516 18.072C122.732 18.6 122.84 19.176 122.84 19.8C122.84 20.424 122.732 21.004 122.516 21.54C122.3 22.068 121.996 22.532 121.604 22.932C121.212 23.324 120.748 23.632 120.212 23.856C119.684 24.072 119.104 24.18 118.472 24.18C117.84 24.18 117.26 24.072 116.732 23.856C116.204 23.632 115.744 23.324 115.352 22.932C114.96 22.532 114.656 22.068 114.44 21.54C114.224 21.004 114.116 20.424 114.116 19.8ZM115.616 19.8C115.616 20.376 115.736 20.892 115.976 21.348C116.224 21.796 116.564 22.148 116.996 22.404C117.428 22.66 117.92 22.788 118.472 22.788C119.032 22.788 119.524 22.66 119.948 22.404C120.38 22.148 120.716 21.796 120.956 21.348C121.204 20.892 121.328 20.376 121.328 19.8C121.328 19.224 121.208 18.712 120.968 18.264C120.728 17.808 120.392 17.452 119.96 17.196C119.536 16.94 119.04 16.812 118.472 16.812C117.92 16.812 117.428 16.94 116.996 17.196C116.564 17.452 116.224 17.808 115.976 18.264C115.736 18.712 115.616 19.224 115.616 19.8ZM125.014 16.908V15.6H130.87V16.908H128.65V24H127.222V16.908H125.014ZM132.811 19.8C132.811 19.176 132.919 18.6 133.135 18.072C133.351 17.536 133.655 17.076 134.047 16.692C134.447 16.3 134.911 15.996 135.439 15.78C135.967 15.564 136.543 15.456 137.167 15.456C137.791 15.456 138.367 15.564 138.895 15.78C139.431 15.996 139.895 16.3 140.287 16.692C140.687 17.076 140.995 17.536 141.211 18.072C141.427 18.6 141.535 19.176 141.535 19.8C141.535 20.424 141.427 21.004 141.211 21.54C140.995 22.068 140.691 22.532 140.299 22.932C139.907 23.324 139.443 23.632 138.907 23.856C138.379 24.072 137.799 24.18 137.167 24.18C136.535 24.18 135.955 24.072 135.427 23.856C134.899 23.632 134.439 23.324 134.047 22.932C133.655 22.532 133.351 22.068 133.135 21.54C132.919 21.004 132.811 20.424 132.811 19.8ZM134.311 19.8C134.311 20.376 134.431 20.892 134.671 21.348C134.919 21.796 135.259 22.148 135.691 22.404C136.123 22.66 136.615 22.788 137.167 22.788C137.727 22.788 138.219 22.66 138.643 22.404C139.075 22.148 139.411 21.796 139.651 21.348C139.899 20.892 140.023 20.376 140.023 19.8C140.023 19.224 139.903 18.712 139.663 18.264C139.423 17.808 139.087 17.452 138.655 17.196C138.231 16.94 137.735 16.812 137.167 16.812C136.615 16.812 136.123 16.94 135.691 17.196C135.259 17.452 134.919 17.808 134.671 18.264C134.431 18.712 134.311 19.224 134.311 19.8Z" fill="#FF868E"/>
</svg>
