<svg width="143" height="40" viewBox="0 0 143 40" fill="none" xmlns="http://www.w3.org/2000/svg">
<rect width="143" height="40" rx="10" fill="#FF868E"/>
<path d="M57.2842 15.6H58.7002V21.18C58.7002 21.692 58.8402 22.108 59.1202 22.428C59.4002 22.748 59.8082 22.908 60.3442 22.908C60.8882 22.908 61.2962 22.748 61.5682 22.428C61.8482 22.108 61.9882 21.692 61.9882 21.18V15.6H63.4042V21.24C63.4042 21.856 63.2722 22.388 63.0082 22.836C62.7522 23.276 62.3922 23.616 61.9282 23.856C61.4722 24.096 60.9442 24.216 60.3442 24.216C59.7442 24.216 59.2122 24.096 58.7482 23.856C58.2922 23.616 57.9322 23.276 57.6682 22.836C57.4122 22.388 57.2842 21.856 57.2842 21.24V15.6ZM67.2192 15.6H69.7512C70.3672 15.6 70.8992 15.708 71.3472 15.924C71.7952 16.132 72.1432 16.432 72.3912 16.824C72.6392 17.216 72.7632 17.68 72.7632 18.216C72.7632 19.016 72.4912 19.652 71.9472 20.124C71.4032 20.588 70.6712 20.82 69.7512 20.82H68.6352V24H67.2192V15.6ZM69.7512 16.848H68.6352V19.572H69.7512C70.2392 19.572 70.6312 19.46 70.9272 19.236C71.2232 19.004 71.3712 18.664 71.3712 18.216C71.3712 17.768 71.2232 17.428 70.9272 17.196C70.6312 16.964 70.2392 16.848 69.7512 16.848ZM76.1567 15.6H77.5727V22.728H80.9087V24H76.1567V15.6ZM83.0908 19.8C83.0908 19.176 83.1988 18.6 83.4148 18.072C83.6308 17.536 83.9348 17.076 84.3268 16.692C84.7268 16.3 85.1908 15.996 85.7188 15.78C86.2468 15.564 86.8228 15.456 87.4468 15.456C88.0708 15.456 88.6468 15.564 89.1748 15.78C89.7108 15.996 90.1748 16.3 90.5668 16.692C90.9668 17.076 91.2748 17.536 91.4908 18.072C91.7068 18.6 91.8148 19.176 91.8148 19.8C91.8148 20.424 91.7068 21.004 91.4908 21.54C91.2748 22.068 90.9708 22.532 90.5788 22.932C90.1868 23.324 89.7228 23.632 89.1868 23.856C88.6588 24.072 88.0788 24.18 87.4468 24.18C86.8148 24.18 86.2348 24.072 85.7068 23.856C85.1788 23.632 84.7188 23.324 84.3268 22.932C83.9348 22.532 83.6308 22.068 83.4148 21.54C83.1988 21.004 83.0908 20.424 83.0908 19.8ZM84.5908 19.8C84.5908 20.376 84.7108 20.892 84.9508 21.348C85.1988 21.796 85.5388 22.148 85.9708 22.404C86.4028 22.66 86.8948 22.788 87.4468 22.788C88.0068 22.788 88.4988 22.66 88.9228 22.404C89.3548 22.148 89.6908 21.796 89.9308 21.348C90.1788 20.892 90.3028 20.376 90.3028 19.8C90.3028 19.224 90.1828 18.712 89.9428 18.264C89.7028 17.808 89.3668 17.452 88.9348 17.196C88.5108 16.94 88.0148 16.812 87.4468 16.812C86.8948 16.812 86.4028 16.94 85.9708 17.196C85.5388 17.452 85.1988 17.808 84.9508 18.264C84.7108 18.712 84.5908 19.224 84.5908 19.8ZM100.541 24L99.5806 21.84H96.4846L95.5246 24H93.9286L98.0326 15.132L102.137 24H100.541ZM98.0326 17.976L96.8926 20.64H99.1726L98.0326 17.976ZM107.826 24H105.114V15.6H107.826C108.682 15.6 109.434 15.776 110.082 16.128C110.73 16.472 111.234 16.96 111.594 17.592C111.962 18.216 112.146 18.952 112.146 19.8C112.146 20.64 111.962 21.376 111.594 22.008C111.234 22.64 110.73 23.132 110.082 23.484C109.434 23.828 108.682 24 107.826 24ZM107.79 16.932H106.566V22.668H107.79C108.342 22.668 108.838 22.56 109.278 22.344C109.718 22.128 110.062 21.808 110.31 21.384C110.566 20.96 110.694 20.432 110.694 19.8C110.694 19.168 110.566 18.64 110.31 18.216C110.062 17.792 109.718 17.472 109.278 17.256C108.838 17.04 108.342 16.932 107.79 16.932Z" fill="white"/>
<path fill-rule="evenodd" clip-rule="evenodd" d="M37.866 12L42.2355 16.0334L41.4129 16.9245L38.4892 14.2257V24.3618H37.2764V14.3046L34.6734 16.9077L33.8158 16.0502L37.866 12ZM31.2127 26.7873V19.5108H30V28H45.7656V19.5108H44.5529V26.7873H31.2127Z" fill="white"/>
</svg>
