<svg width="24" height="24" viewBox="0 0 24 24" fill="none" xmlns="http://www.w3.org/2000/svg">
<path d="M7.83984 12.4575C7.83984 9.90766 9.90693 7.84058 12.4568 7.84058L19.3822 7.84058C21.9321 7.84058 23.9992 9.90766 23.9992 12.4575C23.9992 15.0074 21.9321 17.0745 19.3822 17.0745H12.4568C9.90693 17.0745 7.83984 15.0074 7.83984 12.4575Z" fill="#FF868E"/>
<path d="M12.4568 24C9.90693 24 7.83984 21.9329 7.83984 19.383L7.83984 12.4576C7.83984 9.90772 9.90693 7.84063 12.4568 7.84063C15.0067 7.84063 17.0738 9.90772 17.0738 12.4576V19.383C17.0738 21.9329 15.0067 24 12.4568 24Z" fill="#FF868E"/>
<path d="M11.5427 2.8856C11.5427 4.47927 10.2508 5.7712 8.65709 5.7712C7.06341 5.7712 5.77148 4.47927 5.77148 2.8856C5.77148 1.29193 7.06341 0 8.65709 0C10.2508 0 11.5427 1.29193 11.5427 2.8856Z" fill="#FF868E"/>
<path d="M5.7712 16.7364C5.7712 18.3301 4.47927 19.622 2.8856 19.622C1.29193 19.622 0 18.3301 0 16.7364C0 15.1428 1.29193 13.8508 2.8856 13.8508C4.47927 13.8508 5.7712 15.1428 5.7712 16.7364Z" fill="#FF868E"/>
<path d="M19.6228 2.8856C19.6228 4.47927 18.3308 5.7712 16.7372 5.7712C15.1435 5.7712 13.8516 4.47927 13.8516 2.8856C13.8516 1.29193 15.1435 0 16.7372 0C18.3308 0 19.6228 1.29193 19.6228 2.8856Z" fill="#FF868E"/>
<path d="M5.7712 8.65684C5.7712 10.2505 4.47927 11.5424 2.8856 11.5424C1.29193 11.5424 0 10.2505 0 8.65684C0 7.06317 1.29193 5.77124 2.8856 5.77124C4.47927 5.77124 5.7712 7.06317 5.7712 8.65684Z" fill="#FF868E"/>
</svg>
