<svg width="62" height="16" viewBox="0 0 62 16" fill="none" xmlns="http://www.w3.org/2000/svg">
<path d="M9.99984 14C9.74397 14 9.48797 13.9023 9.29297 13.707L4.29297 8.70703C3.90234 8.31641 3.90234 7.68359 4.29297 7.29297L9.29297 2.29297C9.68359 1.90234 10.3164 1.90234 10.707 2.29297C11.0977 2.68359 11.0977 3.31641 10.707 3.70703L6.41391 8L10.7077 12.2937C11.0983 12.6844 11.0983 13.3172 10.7077 13.7078C10.5123 13.9031 10.2561 14 9.99984 14Z" fill="#FF868E"/>
<path d="M26.936 3.6V12H28.352V3.6H26.936ZM27.776 4.848H29.468C29.956 4.848 30.348 4.964 30.644 5.196C30.94 5.42 31.088 5.756 31.088 6.204C31.088 6.652 30.94 6.992 30.644 7.224C30.348 7.456 29.956 7.572 29.468 7.572H27.776V8.82H29.468C30.076 8.82 30.604 8.716 31.052 8.508C31.508 8.292 31.86 7.988 32.108 7.596C32.356 7.204 32.48 6.74 32.48 6.204C32.48 5.668 32.356 5.208 32.108 4.824C31.86 4.432 31.508 4.132 31.052 3.924C30.604 3.708 30.076 3.6 29.468 3.6H27.776V4.848ZM37.6015 7.992L40.2775 12H41.9815L39.1375 7.992H37.6015ZM35.8735 3.6V12H37.2895V3.6H35.8735ZM36.7135 4.824H38.4055C38.7255 4.824 39.0055 4.88 39.2455 4.992C39.4935 5.104 39.6855 5.264 39.8215 5.472C39.9575 5.68 40.0255 5.936 40.0255 6.24C40.0255 6.536 39.9575 6.792 39.8215 7.008C39.6855 7.216 39.4935 7.376 39.2455 7.488C39.0055 7.6 38.7255 7.656 38.4055 7.656H36.7135V8.82H38.4655C39.0735 8.82 39.6015 8.712 40.0495 8.496C40.5055 8.28 40.8575 7.976 41.1055 7.584C41.3535 7.192 41.4775 6.732 41.4775 6.204C41.4775 5.676 41.3535 5.22 41.1055 4.836C40.8575 4.444 40.5055 4.14 40.0495 3.924C39.6015 3.708 39.0735 3.6 38.4655 3.6H36.7135V4.824ZM45.8862 12H50.1222V10.752H45.8862V12ZM45.8862 4.848H50.1222V3.6H45.8862V4.848ZM45.8862 8.112H49.8822V6.888H45.8862V8.112ZM45.0102 3.6V12H46.4022V3.6H45.0102ZM57.0697 9.504L54.5977 3.6H52.9657L57.0697 12.468L61.1737 3.6H59.5417L57.0697 9.504Z" fill="#FF868E"/>
</svg>
