<svg width="32" height="32" viewBox="0 0 32 32" fill="none" xmlns="http://www.w3.org/2000/svg">
<g filter="url(#filter0_d_10802_296)">
<rect x="4" width="24" height="24" rx="12" fill="white" fill-opacity="0.05"/>
<path fill-rule="evenodd" clip-rule="evenodd" d="M10.6628 12.11C11.7983 13.3716 13.5315 14.6001 15.9997 14.6001C18.468 14.6001 20.2012 13.3716 21.3367 12.11C21.9047 11.4788 22.3164 10.8458 22.5857 10.3705C22.7201 10.1334 22.8182 9.93706 22.8819 9.80186C22.9138 9.7343 22.937 9.68214 22.9518 9.64795C22.9592 9.63086 22.9645 9.61827 22.9677 9.61051L22.971 9.60253L22.9714 9.60168C22.9713 9.60185 22.9712 9.60204 23.4664 9.80011C23.9616 9.99819 23.9615 9.99842 23.9614 9.99867L23.9612 9.99927L23.9605 10.0008L23.9587 10.0054L23.9525 10.0203C23.9474 10.0327 23.94 10.0501 23.9305 10.0721C23.9115 10.116 23.8836 10.1784 23.8467 10.2567C23.773 10.4132 23.6627 10.6335 23.5138 10.8964C23.2164 11.4211 22.7614 12.1214 22.1295 12.8236C21.9344 13.0403 21.7219 13.2578 21.4913 13.4708L23.3102 15.2897L22.556 16.0439L20.6628 14.1507C19.5878 14.9297 18.2211 15.5421 16.5331 15.6499L16.5331 17.8001L15.4664 17.8001L15.4664 15.6499C13.7784 15.5421 12.4117 14.9297 11.3367 14.1508L9.44354 16.0439L8.68929 15.2897L10.5082 13.4708C10.2776 13.2578 10.0651 13.0403 9.86999 12.8236C9.23808 12.1214 8.78309 11.4211 8.48574 10.8964C8.33676 10.6335 8.22652 10.4132 8.15275 10.2567C8.11585 10.1784 8.08802 10.116 8.06898 10.0721C8.05946 10.0501 8.05213 10.0327 8.04697 10.0203L8.04083 10.0054L8.03896 10.0008L8.03833 9.99927L8.03809 9.99867C8.03799 9.99842 8.0379 9.99819 8.53309 9.80011C9.02827 9.60204 9.0282 9.60185 9.02813 9.60168L9.02804 9.60145L9.02848 9.60253L9.03177 9.61051C9.035 9.61828 9.0403 9.63086 9.04771 9.64795C9.06252 9.68214 9.08573 9.7343 9.11758 9.80186C9.18132 9.93706 9.27941 10.1334 9.41376 10.3705C9.68307 10.8458 10.0947 11.4788 10.6628 12.11ZM9.02799 9.60133C9.02797 9.60129 9.02799 9.60133 9.02804 9.60145Z" fill="#FF868E"/>
</g>
<defs>
<filter id="filter0_d_10802_296" x="0" y="0" width="32" height="32" filterUnits="userSpaceOnUse" color-interpolation-filters="sRGB">
<feFlood flood-opacity="0" result="BackgroundImageFix"/>
<feColorMatrix in="SourceAlpha" type="matrix" values="0 0 0 0 0 0 0 0 0 0 0 0 0 0 0 0 0 0 127 0" result="hardAlpha"/>
<feOffset dy="4"/>
<feGaussianBlur stdDeviation="2"/>
<feComposite in2="hardAlpha" operator="out"/>
<feColorMatrix type="matrix" values="0 0 0 0 0 0 0 0 0 0 0 0 0 0 0 0 0 0 0.25 0"/>
<feBlend mode="normal" in2="BackgroundImageFix" result="effect1_dropShadow_10802_296"/>
<feBlend mode="normal" in="SourceGraphic" in2="effect1_dropShadow_10802_296" result="shape"/>
</filter>
</defs>
</svg>
