<svg width="30" height="30" viewBox="0 0 30 30" fill="none" xmlns="http://www.w3.org/2000/svg">
<path fill-rule="evenodd" clip-rule="evenodd" d="M8.07107 2.30769C4.71811 2.30769 2 5.44397 2 9.31277C2 11.1706 2.63963 12.9524 3.77817 14.2661L15 27.2144L26.2218 14.2661C27.3604 12.9524 28 11.1706 28 9.31277C28 5.44397 25.2819 2.30769 21.9289 2.30769C20.3188 2.30769 18.7746 3.04572 17.636 4.35943L15.7071 6.58512C15.3166 7.03573 14.6834 7.03573 14.2929 6.58512L12.364 4.35943C11.2254 3.04573 9.68121 2.30769 8.07107 2.30769ZM0 9.31277C0 4.16947 3.61354 0 8.07107 0C10.2116 0 12.2646 0.981165 13.7782 2.72765L15 4.13745L16.2218 2.72765C17.7354 0.981163 19.7884 0 21.9289 0C26.3865 0 30 4.16947 30 9.31277C30 11.7827 29.1497 14.1514 27.636 15.8979L15.7071 29.662C15.3166 30.1127 14.6834 30.1127 14.2929 29.662L2.36396 15.8979C0.850339 14.1514 0 11.7827 0 9.31277Z" fill="#FF868E"/>
</svg>
