<svg width="62" height="16" viewBox="0 0 62 16" fill="none" xmlns="http://www.w3.org/2000/svg">
<path d="M7.068 3.6V9.24L0.936 3.18V12H2.328V6.36L8.46 12.42V3.6H7.068ZM13.1987 12H17.4347V10.752H13.1987V12ZM13.1987 4.848H17.4347V3.6H13.1987V4.848ZM13.1987 8.112H17.1947V6.888H13.1987V8.112ZM12.3227 3.6V12H13.7147V3.6H12.3227ZM25.5342 3.6L23.9262 6.444L22.3542 3.6H20.6382L23.1222 7.632L20.3382 12H22.0542L23.9142 8.772L25.7142 12H27.4422L24.7182 7.632L27.2622 3.6H25.5342ZM29.9905 4.908H32.1985V12H33.6265V4.908H35.8465V3.6H29.9905V4.908Z" fill="white"/>
<path d="M52.0002 2C52.256 2 52.512 2.09766 52.707 2.29297L57.707 7.29297C58.0977 7.68359 58.0977 8.31641 57.707 8.70703L52.707 13.707C52.3164 14.0977 51.6836 14.0977 51.293 13.707C50.9023 13.3164 50.9023 12.6836 51.293 12.293L55.5861 8L51.2923 3.70625C50.9017 3.31563 50.9017 2.68281 51.2923 2.29219C51.4877 2.09688 51.7439 2 52.0002 2Z" fill="white"/>
</svg>
