<svg width="171" height="40" viewBox="0 0 171 40" fill="none" xmlns="http://www.w3.org/2000/svg">
<rect width="171" height="40" rx="10" fill="#FF868E"/>
<path d="M44.1983 15.6H45.6143V21.18C45.6143 21.692 45.7543 22.108 46.0343 22.428C46.3143 22.748 46.7223 22.908 47.2583 22.908C47.8023 22.908 48.2103 22.748 48.4823 22.428C48.7623 22.108 48.9023 21.692 48.9023 21.18V15.6H50.3183V21.24C50.3183 21.856 50.1863 22.388 49.9223 22.836C49.6663 23.276 49.3063 23.616 48.8423 23.856C48.3863 24.096 47.8583 24.216 47.2583 24.216C46.6583 24.216 46.1263 24.096 45.6623 23.856C45.2063 23.616 44.8463 23.276 44.5823 22.836C44.3263 22.388 44.1983 21.856 44.1983 21.24V15.6ZM54.1333 15.6H56.6653C57.2813 15.6 57.8133 15.708 58.2613 15.924C58.7093 16.132 59.0573 16.432 59.3053 16.824C59.5533 17.216 59.6773 17.68 59.6773 18.216C59.6773 19.016 59.4053 19.652 58.8613 20.124C58.3173 20.588 57.5853 20.82 56.6653 20.82H55.5493V24H54.1333V15.6ZM56.6653 16.848H55.5493V19.572H56.6653C57.1533 19.572 57.5453 19.46 57.8413 19.236C58.1373 19.004 58.2853 18.664 58.2853 18.216C58.2853 17.768 58.1373 17.428 57.8413 17.196C57.5453 16.964 57.1533 16.848 56.6653 16.848ZM63.0708 15.6H64.4868V22.728H67.8228V24H63.0708V15.6ZM70.0048 19.8C70.0048 19.176 70.1128 18.6 70.3288 18.072C70.5448 17.536 70.8488 17.076 71.2408 16.692C71.6408 16.3 72.1048 15.996 72.6328 15.78C73.1608 15.564 73.7368 15.456 74.3608 15.456C74.9848 15.456 75.5608 15.564 76.0888 15.78C76.6248 15.996 77.0888 16.3 77.4808 16.692C77.8808 17.076 78.1888 17.536 78.4048 18.072C78.6208 18.6 78.7288 19.176 78.7288 19.8C78.7288 20.424 78.6208 21.004 78.4048 21.54C78.1888 22.068 77.8848 22.532 77.4928 22.932C77.1008 23.324 76.6368 23.632 76.1008 23.856C75.5728 24.072 74.9928 24.18 74.3608 24.18C73.7288 24.18 73.1488 24.072 72.6208 23.856C72.0928 23.632 71.6328 23.324 71.2408 22.932C70.8488 22.532 70.5448 22.068 70.3288 21.54C70.1128 21.004 70.0048 20.424 70.0048 19.8ZM71.5048 19.8C71.5048 20.376 71.6248 20.892 71.8648 21.348C72.1128 21.796 72.4528 22.148 72.8848 22.404C73.3168 22.66 73.8088 22.788 74.3608 22.788C74.9208 22.788 75.4128 22.66 75.8368 22.404C76.2688 22.148 76.6048 21.796 76.8448 21.348C77.0928 20.892 77.2168 20.376 77.2168 19.8C77.2168 19.224 77.0968 18.712 76.8568 18.264C76.6168 17.808 76.2808 17.452 75.8488 17.196C75.4248 16.94 74.9288 16.812 74.3608 16.812C73.8088 16.812 73.3168 16.94 72.8848 17.196C72.4528 17.452 72.1128 17.808 71.8648 18.264C71.6248 18.712 71.5048 19.224 71.5048 19.8ZM87.4546 24L86.4946 21.84H83.3986L82.4386 24H80.8426L84.9466 15.132L89.0506 24H87.4546ZM84.9466 17.976L83.8066 20.64H86.0866L84.9466 17.976ZM94.7398 24H92.0278V15.6H94.7398C95.5958 15.6 96.3478 15.776 96.9958 16.128C97.6438 16.472 98.1478 16.96 98.5078 17.592C98.8758 18.216 99.0598 18.952 99.0598 19.8C99.0598 20.64 98.8758 21.376 98.5078 22.008C98.1478 22.64 97.6438 23.132 96.9958 23.484C96.3478 23.828 95.5958 24 94.7398 24ZM94.7038 16.932H93.4798V22.668H94.7038C95.2558 22.668 95.7518 22.56 96.1918 22.344C96.6318 22.128 96.9758 21.808 97.2238 21.384C97.4798 20.96 97.6078 20.432 97.6078 19.8C97.6078 19.168 97.4798 18.64 97.2238 18.216C96.9758 17.792 96.6318 17.472 96.1918 17.256C95.7518 17.04 95.2558 16.932 94.7038 16.932ZM102.442 15.6H103.87V24H102.442V15.6ZM113.879 15.6H115.271V24.42L109.139 18.36V24H107.747V15.18L113.879 21.24V15.6ZM123.129 20.808V19.608H127.173C127.189 20.224 127.109 20.808 126.933 21.36C126.757 21.904 126.493 22.388 126.141 22.812C125.789 23.236 125.353 23.572 124.833 23.82C124.313 24.06 123.717 24.18 123.045 24.18C122.413 24.18 121.829 24.076 121.293 23.868C120.757 23.652 120.289 23.348 119.889 22.956C119.497 22.564 119.193 22.1 118.977 21.564C118.761 21.028 118.653 20.44 118.653 19.8C118.653 19.16 118.761 18.576 118.977 18.048C119.201 17.512 119.509 17.052 119.901 16.668C120.301 16.284 120.769 15.988 121.305 15.78C121.849 15.564 122.437 15.456 123.069 15.456C123.893 15.456 124.609 15.62 125.217 15.948C125.825 16.276 126.313 16.732 126.681 17.316L125.529 18.096C125.297 17.696 124.973 17.376 124.557 17.136C124.149 16.888 123.653 16.764 123.069 16.764C122.525 16.764 122.029 16.892 121.581 17.148C121.141 17.396 120.789 17.748 120.525 18.204C120.269 18.652 120.141 19.184 120.141 19.8C120.141 20.408 120.269 20.944 120.525 21.408C120.781 21.864 121.129 22.22 121.569 22.476C122.017 22.732 122.517 22.86 123.069 22.86C123.573 22.86 124.005 22.768 124.365 22.584C124.725 22.4 125.017 22.152 125.241 21.84C125.465 21.528 125.621 21.184 125.709 20.808H123.129Z" fill="white"/>
</svg>
