<svg width="83" height="16" viewBox="0 0 83 16" fill="none" xmlns="http://www.w3.org/2000/svg">
<path d="M27.2842 3.6H28.7002V9.18C28.7002 9.692 28.8402 10.108 29.1202 10.428C29.4002 10.748 29.8082 10.908 30.3442 10.908C30.8882 10.908 31.2962 10.748 31.5682 10.428C31.8482 10.108 31.9882 9.692 31.9882 9.18V3.6H33.4042V9.24C33.4042 9.856 33.2722 10.388 33.0082 10.836C32.7522 11.276 32.3922 11.616 31.9282 11.856C31.4722 12.096 30.9442 12.216 30.3442 12.216C29.7442 12.216 29.2122 12.096 28.7482 11.856C28.2922 11.616 27.9322 11.276 27.6682 10.836C27.4122 10.388 27.2842 9.856 27.2842 9.24V3.6ZM37.2192 3.6H39.7512C40.3672 3.6 40.8992 3.708 41.3472 3.924C41.7952 4.132 42.1432 4.432 42.3912 4.824C42.6392 5.216 42.7632 5.68 42.7632 6.216C42.7632 7.016 42.4912 7.652 41.9472 8.124C41.4032 8.588 40.6712 8.82 39.7512 8.82H38.6352V12H37.2192V3.6ZM39.7512 4.848H38.6352V7.572H39.7512C40.2392 7.572 40.6312 7.46 40.9272 7.236C41.2232 7.004 41.3712 6.664 41.3712 6.216C41.3712 5.768 41.2232 5.428 40.9272 5.196C40.6312 4.964 40.2392 4.848 39.7512 4.848ZM46.1567 3.6H47.5727V10.728H50.9087V12H46.1567V3.6ZM53.0908 7.8C53.0908 7.176 53.1988 6.6 53.4148 6.072C53.6308 5.536 53.9348 5.076 54.3268 4.692C54.7268 4.3 55.1908 3.996 55.7188 3.78C56.2468 3.564 56.8228 3.456 57.4468 3.456C58.0708 3.456 58.6468 3.564 59.1748 3.78C59.7108 3.996 60.1748 4.3 60.5668 4.692C60.9668 5.076 61.2748 5.536 61.4908 6.072C61.7068 6.6 61.8148 7.176 61.8148 7.8C61.8148 8.424 61.7068 9.004 61.4908 9.54C61.2748 10.068 60.9708 10.532 60.5788 10.932C60.1868 11.324 59.7228 11.632 59.1868 11.856C58.6588 12.072 58.0788 12.18 57.4468 12.18C56.8148 12.18 56.2348 12.072 55.7068 11.856C55.1788 11.632 54.7188 11.324 54.3268 10.932C53.9348 10.532 53.6308 10.068 53.4148 9.54C53.1988 9.004 53.0908 8.424 53.0908 7.8ZM54.5908 7.8C54.5908 8.376 54.7108 8.892 54.9508 9.348C55.1988 9.796 55.5388 10.148 55.9708 10.404C56.4028 10.66 56.8948 10.788 57.4468 10.788C58.0068 10.788 58.4988 10.66 58.9228 10.404C59.3548 10.148 59.6908 9.796 59.9308 9.348C60.1788 8.892 60.3028 8.376 60.3028 7.8C60.3028 7.224 60.1828 6.712 59.9428 6.264C59.7028 5.808 59.3668 5.452 58.9348 5.196C58.5108 4.94 58.0148 4.812 57.4468 4.812C56.8948 4.812 56.4028 4.94 55.9708 5.196C55.5388 5.452 55.1988 5.808 54.9508 6.264C54.7108 6.712 54.5908 7.224 54.5908 7.8ZM70.5406 12L69.5806 9.84H66.4846L65.5246 12H63.9286L68.0326 3.132L72.1366 12H70.5406ZM68.0326 5.976L66.8926 8.64H69.1726L68.0326 5.976ZM77.8257 12H75.1137V3.6H77.8257C78.6817 3.6 79.4337 3.776 80.0817 4.128C80.7297 4.472 81.2337 4.96 81.5937 5.592C81.9617 6.216 82.1457 6.952 82.1457 7.8C82.1457 8.64 81.9617 9.376 81.5937 10.008C81.2337 10.64 80.7297 11.132 80.0817 11.484C79.4337 11.828 78.6817 12 77.8257 12ZM77.7897 4.932H76.5657V10.668H77.7897C78.3417 10.668 78.8377 10.56 79.2777 10.344C79.7177 10.128 80.0617 9.808 80.3097 9.384C80.5657 8.96 80.6937 8.432 80.6937 7.8C80.6937 7.168 80.5657 6.64 80.3097 6.216C80.0617 5.792 79.7177 5.472 79.2777 5.256C78.8377 5.04 78.3417 4.932 77.7897 4.932Z" fill="white"/>
<path fill-rule="evenodd" clip-rule="evenodd" d="M7.86601 0L12.2355 4.03339L11.4129 4.92452L8.48919 2.22567V12.3618H7.27645V2.30464L4.67336 4.90772L3.81583 4.05019L7.86601 0ZM1.21274 14.7873V7.51081H0V16H15.7656V7.51081H14.5529V14.7873H1.21274Z" fill="white"/>
</svg>
